<svg id="logo" xmlns="http://www.w3.org/2000/svg" width="44" height="44" viewBox="0 0 44 44">
  <path id="Pfad_13_2_" d="M9.295,0h25.41A9.275,9.275,0,0,1,44,9.295V44H9.295A9.275,9.275,0,0,1,0,34.705H0V9.295A9.275,9.275,0,0,1,9.295,0Z" fill="#3f6168"/>
  <g id="Gruppe_9856" data-name="Gruppe 9856" transform="translate(9.696 3.343)">
    <path id="Pfad_4" data-name="Pfad 4" d="M17.777,11.185h-.468A2.825,2.825,0,0,1,14.5,8.377V7.909A2.825,2.825,0,0,1,17.309,5.1h.468a2.825,2.825,0,0,1,2.809,2.809v.468A2.825,2.825,0,0,1,17.777,11.185Z" transform="translate(-14.5 -5.033)" fill="#fff" stroke="#3f6168" stroke-miterlimit="10" stroke-width="2"/>
    <path id="Pfad_5" data-name="Pfad 5" d="M44.1,6.137l.334-.334a2.826,2.826,0,0,1,3.945,0l.334.334a2.826,2.826,0,0,1,0,3.945l-.334.334a2.826,2.826,0,0,1-3.945,0l-.334-.334A2.826,2.826,0,0,1,44.1,6.137Z" transform="translate(-24.042 -5)" fill="#fff" stroke="#3f6168" stroke-miterlimit="10" stroke-width="2"/>
  </g>
  <path id="Pfad_14" data-name="Pfad 14" d="M0,40.669a9.275,9.275,0,0,0,9.295,9.295H44V18H0Z" transform="translate(0 -5.964)" fill="#1f9978"/>
  <path id="Pfad_15" data-name="Pfad 15" d="M26.453,43.746a1.171,1.171,0,0,1-1.672,0l-7.356-7.422a1.171,1.171,0,0,1,0-1.672l2.207-2.207a1.171,1.171,0,0,1,1.672,0l4.28,4.347L36.417,26.026a1.171,1.171,0,0,1,1.672,0L40.3,28.233a1.171,1.171,0,0,1,0,1.672Z" transform="translate(-5.657 -8.506)" fill="#fff"/>
</svg>
