<svg id="Gradient" xmlns="http://www.w3.org/2000/svg" xmlns:xlink="http://www.w3.org/1999/xlink" width="344.79" height="85.373" viewBox="0 0 344.79 85.373">
  <defs>
    <style>
      .cls-1 {
        fill: url(#linear-gradient);
      }

      .cls-2 {
        clip-path: url(#clip-path);
      }
    </style>
    <linearGradient id="linear-gradient" y1="0.5" x2="0.887" y2="0.43" gradientUnits="objectBoundingBox">
      <stop offset="0" stop-color="#161615"/>
      <stop offset="0.46" stop-color="#161615"/>
      <stop offset="1" stop-color="#e23836"/>
    </linearGradient>
    <clipPath id="clip-path">
      <path id="Pfad_10" data-name="Pfad 10" class="cls-1" d="M114.478,81.982h1.6V72.805h-1.6Zm37.178-3.791H160.8v2.194h-9.143Zm0-3.791H160.8v2.194h-9.143Zm-1.6-1.6v9.177H159.9a2.418,2.418,0,0,0,2.493-2.344v-.4a2.284,2.284,0,0,0-.965-1.845,2.3,2.3,0,0,0,.916-1.845v-.4a2.375,2.375,0,0,0-2.444-2.344Zm15.562,1.6h8.911v5.984h-8.911Zm.9-1.6a2.489,2.489,0,0,0-2.493,2.492v4.192a2.489,2.489,0,0,0,2.493,2.493h7.114a2.49,2.49,0,0,0,2.495-2.493V75.3a2.49,2.49,0,0,0-2.495-2.492Zm13.069,1.6H188.5v5.984H179.59Zm.9-1.6a2.491,2.491,0,0,0-2.495,2.492v4.192a2.491,2.491,0,0,0,2.495,2.493H187.6a2.49,2.49,0,0,0,2.493-2.493V75.3a2.49,2.49,0,0,0-2.493-2.492Zm27,0A2.49,2.49,0,0,0,205,75.3v.4a2.491,2.491,0,0,0,2.495,2.495h8.444v2.194H205.429v1.6h9.609a2.489,2.489,0,0,0,2.493-2.493v-.4a2.489,2.489,0,0,0-2.493-2.493h-8.445V74.4H217.1v-1.6Zm24.941,0v9.177h1.6V74.4h8.911v2.993h1.6V75.3a2.488,2.488,0,0,0-2.492-2.492Zm14.5,5.386h9.343v2.194H246.93Zm-1.164-5.386v1.6h10.507v2.2h-8.444a2.489,2.489,0,0,0-2.493,2.493v.4a2.489,2.489,0,0,0,2.493,2.493H257.87V75.3a2.49,2.49,0,0,0-2.493-2.492Zm15.562,1.6h8.911v5.984h-8.911Zm-1.594-1.6V85.373h1.594V81.982h8.015a2.489,2.489,0,0,0,2.493-2.493V75.3a2.489,2.489,0,0,0-2.493-2.492Zm18.621,0v5.386h10.507v2.194H278.356v1.6h9.609a2.49,2.49,0,0,0,2.493-2.493v-.4a2.49,2.49,0,0,0-2.493-2.493h-8.013V74.4h10.073v-1.6Zm-175.468,1.03-2.495,7.182-2.859-8.212H95.84L98.7,80.953a1.81,1.81,0,0,0,3.393,0l2.493-7.182,2.493,7.182a1.8,1.8,0,0,0,3.374,0l2.861-8.147h-1.7l-2.842,8.212-2.493-7.182a1.805,1.805,0,0,0-1.7-1.181,1.771,1.771,0,0,0-1.7,1.181m11.59-2.427h1.6v-2h-1.6Zm3.457-1.994V79.489a2.49,2.49,0,0,0,2.493,2.493h9.61v-1.6H119.533V74.4h10.507v-1.6H119.533V69.414Zm13.5,0V81.982h1.6V74.4h8.91v7.581h1.6V75.3a2.49,2.49,0,0,0-2.493-2.492h-8.013V69.414Zm60.525,0V79.489a2.489,2.489,0,0,0,2.493,2.493h9.609v-1.6H193.556V74.4h10.508v-1.6H193.556V69.414Zm26.968,0V79.489a2.49,2.49,0,0,0,2.495,2.493h9.607v-1.6H220.527V74.4h10.505v-1.6H220.527V69.414ZM339.256,51.955a2.919,2.919,0,0,0-2.921,2.922v5.534h5.534a2.919,2.919,0,0,0,2.921-2.921V51.955ZM209.364,22.135c-1.076,0-1.537.461-1.537,1.537v35.2c0,1.078.461,1.539,1.537,1.539h6.764c1.076,0,1.537-.461,1.537-1.539v-35.2c0-1.076-.461-1.537-1.537-1.537Zm31.82,0a37.522,37.522,0,0,0-7.84.769,11.189,11.189,0,0,0-5.073,2.459,10.988,10.988,0,0,0-2.767,4.458,26.546,26.546,0,0,0-.769,6.456V58.72c0,1.076.461,1.537,1.537,1.537h6.764c1.076,0,1.537-.461,1.537-1.537V38.583a12.67,12.67,0,0,1,.307-3.689,5.559,5.559,0,0,1,1.23-2.307,5.559,5.559,0,0,1,2.306-1.228,21.911,21.911,0,0,1,3.689-.307h18.6a12.669,12.669,0,0,1,3.689.307,4.211,4.211,0,0,1,2.152,1.228,4.626,4.626,0,0,1,1.076,2.307,25.5,25.5,0,0,1,.307,3.689V58.872c0,1.078.461,1.539,1.537,1.539h6.764c1.076,0,1.537-.461,1.537-1.539v-22.6A20.672,20.672,0,0,0,277,29.821a10.044,10.044,0,0,0-2.767-4.458A11.189,11.189,0,0,0,269.16,22.9a37.522,37.522,0,0,0-7.84-.769ZM293.448,35.97c0-2.152.461-3.843,1.537-4.767s3.074-1.382,6.149-1.382h17.524c1.691,0,2.767.307,3.382.922a4.325,4.325,0,0,1,.922,3.074v2.921a1.131,1.131,0,0,1-1.23,1.23H293.448ZM320.5,22.289H300.211a37.523,37.523,0,0,0-7.84.769,11.2,11.2,0,0,0-5.073,2.459,9.57,9.57,0,0,0-2.767,4.458,26.546,26.546,0,0,0-.769,6.456v9.99a20.677,20.677,0,0,0,.769,6.458,10.043,10.043,0,0,0,2.767,4.458,11.2,11.2,0,0,0,5.073,2.459,35.388,35.388,0,0,0,7.84.769h29.975a1.131,1.131,0,0,0,1.23-1.23V53.494a1.131,1.131,0,0,0-1.23-1.23H301.134c-3.074,0-5.073-.615-6.149-1.537-1.076-1.076-1.537-2.613-1.537-4.765V44.271h35.2a4.161,4.161,0,0,0,2.921-.922,4.08,4.08,0,0,0,.922-3.074v-6.61a25.951,25.951,0,0,0-.615-5.38,7.121,7.121,0,0,0-1.845-3.536,8.506,8.506,0,0,0-3.689-2,21.256,21.256,0,0,0-5.841-.615Zm-213.668-.461a16.784,16.784,0,0,0-5.226.615,8.028,8.028,0,0,0-3.382,1.843,6.391,6.391,0,0,0-1.845,3.076,11.462,11.462,0,0,0-.615,4v3.074c0,3.074.769,5.534,2.459,7.071,1.537,1.691,4.458,2.459,8.3,2.459h23.365a4.951,4.951,0,0,1,3.074.769,2.579,2.579,0,0,1,.922,2.152v1.845a3.165,3.165,0,0,1-.922,2.613,5.287,5.287,0,0,1-3.074.769H96.842a1.131,1.131,0,0,0-1.23,1.228v5.534a1.132,1.132,0,0,0,1.23,1.231h35.509a16.784,16.784,0,0,0,5.226-.615,8.013,8.013,0,0,0,3.382-1.845A5.747,5.747,0,0,0,142.8,54.57a11.792,11.792,0,0,0,.615-4.15V46.577a9.306,9.306,0,0,0-2.46-6.917c-1.537-1.691-4.458-2.459-8.3-2.459H109.14a4.75,4.75,0,0,1-2.921-.769,3.041,3.041,0,0,1-.769-2.152V33.2a2.824,2.824,0,0,1,.769-2.306,4.438,4.438,0,0,1,2.921-.769h31.512a1.131,1.131,0,0,0,1.23-1.23V23.365a1.131,1.131,0,0,0-1.23-1.23v-.307ZM156.485,8.147h-6.764c-1.076,0-1.537.461-1.537,1.537V58.872c0,1.078.461,1.539,1.537,1.539h6.764c1.076,0,1.537-.461,1.537-1.539V31.051h25.517a12.669,12.669,0,0,1,3.689.307,4.211,4.211,0,0,1,2.152,1.228,4.626,4.626,0,0,1,1.076,2.307,25.507,25.507,0,0,1,.307,3.689V58.872c0,1.078.461,1.539,1.537,1.539h6.764c1.076,0,1.537-.461,1.537-1.539v-22.6a20.673,20.673,0,0,0-.769-6.456,10.043,10.043,0,0,0-2.767-4.458,11.189,11.189,0,0,0-5.073-2.459,37.522,37.522,0,0,0-7.84-.769H158.022V8.147Zm54.724-.307a3.412,3.412,0,0,0-3.382,3.382v6.456h6.456a3.412,3.412,0,0,0,3.382-3.382V7.84ZM22.135,30.392V25.543a.991.991,0,0,1,1.078-1.078V24.2H52.847a14.707,14.707,0,0,1,4.581.54,7.037,7.037,0,0,1,2.964,1.616,5.591,5.591,0,0,1,1.616,2.695,10.04,10.04,0,0,1,.538,3.5v2.695c0,2.693-.672,4.848-2.154,6.2-1.348,1.482-3.908,2.155-7.274,2.155H32.644a4.356,4.356,0,0,0-2.7.672,2.265,2.265,0,0,0-.807,1.888v1.616a2.777,2.777,0,0,0,.807,2.29,4.648,4.648,0,0,0,2.7.673H61.6a.991.991,0,0,1,1.078,1.078v4.85A.991.991,0,0,1,61.6,57.737H25.1c-1.616,0-2.693-.271-3.368-.944a4.072,4.072,0,0,1-.942-3.1V45.882a8.155,8.155,0,0,1,2.155-6.061c1.347-1.482,3.906-2.155,7.274-2.155H50.827a4.162,4.162,0,0,0,2.559-.673,2.664,2.664,0,0,0,.672-1.886v-.942a2.473,2.473,0,0,0-.672-2.02,3.887,3.887,0,0,0-2.559-.675H23.213a.991.991,0,0,1-1.078-1.078M28.438,0A28.472,28.472,0,0,0,0,28.436V83.315H54.877A28.472,28.472,0,0,0,83.315,54.877V0Z"/>
    </clipPath>
  </defs>
  <g id="Gruppe_8" data-name="Gruppe 8" class="cls-2">
    <rect id="Rechteck_15" data-name="Rechteck 15" class="cls-1" width="344.79" height="85.373" transform="translate(0 0)"/>
  </g>
</svg>
