<?xml version="1.0" encoding="UTF-8"?>
<svg id="Gradient" xmlns="http://www.w3.org/2000/svg" version="1.1" xmlns:xlink="http://www.w3.org/1999/xlink" viewBox="0 0 276.4 69">
  <!-- Generator: Adobe Illustrator 29.2.1, SVG Export Plug-In . SVG Version: 2.1.0 Build 116)  -->
  <defs>
    <style>
      .st0 {
        fill: #fff;
      }

      .st1 {
        fill: url(#Unbenannter_Verlauf);
      }
    </style>
    <linearGradient id="Unbenannter_Verlauf" data-name="Unbenannter Verlauf" x1="0" y1="34.5" x2="276.4" y2="34.5" gradientUnits="userSpaceOnUse">
      <stop offset="0" stop-color="#161615"/>
      <stop offset=".5" stop-color="#161615"/>
      <stop offset="1" stop-color="#e23836"/>
    </linearGradient>
  </defs>
  <path class="st1" d="M98.3,63.9l.4,1c-.5.2-1.1.4-1.7.4-1.6,0-2.8-1-2.8-2.8v-4.3h-1.3v-1.2h1.3v-2.7h1.3v2.7h2.4v1.2h-2.4v4.3c0,1.2.6,1.7,1.4,1.7s1,0,1.3-.2ZM104,29.2h-18.4c-1.1,0-1.8-.2-2.3-.6-.4-.4-.6-1-.6-1.7v-.8c0-.7.1-1.4.6-1.8.4-.4,1.2-.6,2.3-.6h24.7c.6,0,1-.4,1-1v-4.3c0-.6-.4-1-1-1v-.2h-26.5c-1.7,0-3,.1-4.1.5-1.1.2-1.9.8-2.7,1.4-.7.7-1.2,1.4-1.4,2.4-.4,1-.5,2-.5,3.1v2.4c0,2.4.6,4.3,1.9,5.5,1.2,1.3,3.5,1.9,6.5,1.9h18.3c1.2,0,1.9.2,2.4.6.5.4.7,1,.7,1.7v1.4c0,1-.2,1.7-.7,2-.5.4-1.3.6-2.4.6h-25.9c-.6,0-1,.4-1,1v4.3c0,.6.4,1,1,1h27.8c1.7,0,3-.1,4.1-.5,1.1-.2,1.9-.8,2.7-1.4.7-.6,1.2-1.4,1.4-2.4.4-1,.5-2,.5-3.3v-3c0-2.3-.6-4.1-1.9-5.4-1.2-1.3-3.5-1.9-6.5-1.9ZM104.6,56.7c-1.3,0-2.4.6-3,1.3h-.1v-4.8h-1.3v11.9h1.3v-5.7c.6-1.1,1.7-1.6,2.8-1.6s2,.7,2,2.3v4.9h1.3v-4.9c0-2.3-1.3-3.5-3-3.5ZM272.1,40.7c-1.3,0-2.3,1.1-2.3,2.3v4.3h4.3c1.3,0,2.3-1.1,2.3-2.3v-4.3h-4.3ZM90.3,53.5c-.4,0-.7.4-.8.8,0,.5.4.8.8.8s.8-.4.8-.8-.4-.8-.8-.8ZM0,22.3v43h43c12.3,0,22.3-10,22.3-22.3V0H22.3C10,0,0,10,0,22.3ZM167.8,47.4h5.3c.8,0,1.2-.4,1.2-1.2v-27.6c0-.8-.4-1.2-1.2-1.2h-5.3c-.8,0-1.2.4-1.2,1.2v27.6c0,.8.4,1.2,1.2,1.2ZM122.4,62.1c0,1.7-1.3,3.1-4,3.1h-3.9v-11.6h3.3c2.7,0,4,1.4,4,3.1s-.6,1.9-1.7,2.4h0c1.4.5,2.3,1.6,2.3,2.9ZM115.7,58.7h2c1.8,0,2.5-.8,2.5-1.9s-.8-1.9-2.8-1.9h-1.8v3.9ZM121,62.1c0-1.2-.7-2.2-2.5-2.2h-2.8v4.1h2.5c1.9,0,2.8-.8,2.8-1.9ZM174.3,11.2v-5.1h-5.1c-1.4,0-2.7,1.2-2.7,2.7v5.1h5.1c1.4,0,2.7-1.2,2.7-2.7ZM89.7,65.1h1.3v-8.2h-1.3v8.2ZM84.5,63.4v.2h-.1v-.2l-2.3-6.5h-1.2l-2.3,6.5v.2h-.2v-.2l-1.8-6.5h-1.4l2.7,8.2h1.4l2.2-6v-.4h.1v.4c.1,0,2.3,6,2.3,6h1.4l2.5-8.2h-1.4l-1.8,6.5ZM176.1,57h1.3v8.1h-1.3v-1h-.1c-.6.6-1.4,1.1-2.7,1.1-2.2,0-4-1.9-4-4.3s1.8-4.3,4.1-4.3c1.2.2,1.9.6,2.5,1.1v-.6ZM176.1,58.7c-.6-.5-1.4-.8-2.4-.8-1.7,0-3,1.4-3,3.1s1.3,3.1,3,3.1c1,0,1.8-.4,2.4-1.3v-4.1ZM161.2,64.1c-.8,0-1.4-.5-1.4-1.7v-4.3h2.4v-1.2h-2.4v-2.7h-1.3v2.7h-1.3v1.2h1.3v4.3c0,1.8,1.2,2.8,2.8,2.8s1.2-.1,1.7-.4l-.4-1c-.4.2-.8.2-1.3.2ZM165.9,57.9h-.1v-1h-1.2v8.3h1.3v-6c.6-.7,1.4-1.2,2.4-1.2h.4v-1.2h-.2c-1.1,0-1.9.5-2.5,1.1ZM266.3,22.2c.2,1.2.5,2.5.5,4.2v5.2c0,1.2-.2,1.9-.7,2.4-.5.5-1.3.7-2.3.7h-27.6v1.3c0,1.7.4,2.9,1.2,3.7.8.7,2.4,1.2,4.8,1.2h22.8c.6,0,1,.4,1,1v4.6c0,.6-.4,1-1,1h-23.5c-2.5,0-4.6-.2-6.1-.6-1.7-.4-3-1.1-4-1.9-1-.8-1.7-2-2.2-3.5-.5-1.4-.6-3.1-.6-5.1v-7.8c0-1.9.2-3.6.6-5.1.4-1.4,1.2-2.5,2.2-3.5,1-.8,2.3-1.6,4-1.9,1.7-.4,3.7-.6,6.1-.6h15.9c1.8-.1,3.4,0,4.6.4s2.2.8,2.9,1.6,1.2,1.7,1.4,2.8ZM259.3,26.5c0-1.1-.2-1.9-.7-2.4-.5-.5-1.3-.7-2.7-.7h-13.7c-2.4,0-4,.4-4.8,1.1s-1.2,2-1.2,3.7v1.6h22.2c.6,0,1-.4,1-1v-2.3ZM188.2,61.1c0,2.4-1.8,4.3-4.1,4.3-1.1-.1-1.9-.5-2.5-.8v4.3h-1.4v-12.1h1.3v1h.1c.6-.6,1.4-1.1,2.7-1.1,2.2,0,4,1.9,4,4.3ZM187,61c0-1.7-1.3-3.1-3-3.1s-1.9.4-2.4,1.4v4.2c.6.4,1.4.6,2.4.6,1.7,0,3-1.4,3-3.1ZM196.6,57.9h-1.3v-3h4.8v-1.2h-6v5.3h2.5c1.6,0,2.7.7,2.7,2.4s-1.2,2.7-2.9,2.7-1.6-.1-2.3-.2l-.2,1.1c.8.2,1.7.4,2.5.4,2.4,0,4.2-1.4,4.2-3.7s-1.7-3.6-4-3.6ZM219.9,19.9c-1-.8-2.3-1.6-4-1.9-1.7-.4-3.7-.6-6.1-.6h-15.8c-2.4,0-4.5.2-6.1.6-1.7.4-3,1.1-4,1.9-1,1-1.7,2-2.2,3.5-.4,1.4-.6,3.1-.6,5.1v17.6c0,.8.4,1.2,1.2,1.2h5.3c.8,0,1.2-.4,1.2-1.2v-15.8c0-1.2,0-2.2.2-2.9.2-.7.5-1.3,1-1.8s1.1-.7,1.8-1c.7-.1,1.7-.2,2.9-.2h14.6c1.2,0,2.2,0,2.9.2.7.2,1.3.5,1.7,1,.4.4.7,1.1.8,1.8.1.8.2,1.8.2,2.9v15.9c0,.8.4,1.2,1.2,1.2h5.3c.8,0,1.2-.4,1.2-1.2v-17.7c0-1.9-.1-3.6-.6-5.1-.5-1.4-1.2-2.7-2.2-3.5ZM132.4,61.1c0,2.4-1.9,4.3-4.3,4.3s-4.3-1.9-4.3-4.3c.1-2.5,2-4.3,4.3-4.3s4.3,1.9,4.3,4.3ZM131,61c0-1.7-1.3-3.1-3-3.1s-3,1.4-3,3.1c.1,1.8,1.4,3.1,3,3.1s3-1.4,3-3.1ZM142.3,61.1c0,2.4-1.9,4.3-4.3,4.3s-4.3-1.9-4.3-4.3c.1-2.5,2-4.3,4.3-4.3s4.3,1.9,4.3,4.3ZM140.9,61c0-1.7-1.3-3.1-3-3.1s-3,1.4-3,3.1c.1,1.8,1.4,3.1,3,3.1s3-1.4,3-3.1ZM150.9,25.6c.4.4.7,1.1.8,1.8.1.8.2,1.8.2,2.9v15.9c0,.8.4,1.2,1.2,1.2h5.3c.8,0,1.2-.4,1.2-1.2v-17.7c0-1.9-.1-3.6-.6-5.1-.5-1.4-1.2-2.7-2.2-3.5s-2.3-1.6-4-1.9c-1.7-.4-3.7-.6-6.1-.6h-20.5V6.4h-6.5c-.8,0-1.2.4-1.2,1.2v38.6c0,.8.4,1.2,1.2,1.2h5.3c.8,0,1.2-.4,1.2-1.2v-21.8h20c1.2,0,2.2,0,2.9.2.7.2,1.3.5,1.7,1ZM147.3,64.1c-.8,0-1.4-.5-1.4-1.7v-4.3h2.4v-1.2h-2.4v-2.7h-1.3v2.7h-1.3v1.2h1.3v4.3c0,1.8,1.2,2.8,2.8,2.8s1.2-.1,1.7-.4l-.4-1c-.4.2-.8.2-1.3.2ZM153.2,60.3c-1.2-.2-1.7-.6-1.7-1.2s.7-1.2,1.6-1.2,1.6.4,2.3.6l.4-1.1c-.8-.4-1.7-.6-2.7-.6-1.6,0-2.9.8-2.9,2.4s1.1,2,2.7,2.4c1.3.2,1.8.7,1.8,1.3,0,1-.8,1.3-1.8,1.3s-1.6-.2-2.4-.6l-.4,1c.8.4,1.8.6,2.8.6,1.7,0,3.1-.7,3.1-2.4s-1.1-2.2-2.8-2.5Z"/>
  <path class="st0" d="M41.2,17.1c2.5,0,4.5.6,5.7,1.9,1.2,1.3,1.8,2.9,1.8,4.9v3c0,2.3-.6,4.1-1.8,5.3s-3.1,1.9-5.5,1.9h-16.2c-1.4,0-2.2.8-2.2,2.4v3.6c0,.6.2.8.8.8h23.9c.6,0,1,.4,1,1v3.7c0,.6-.4,1-1,1h-27.1c-1.4,0-2.4-.2-3-.8s-.8-1.4-.8-2.8v-6.5c0-2.3.6-4.1,1.8-5.4,1.2-1.2,3.1-1.9,5.5-1.9h16c1.4,0,2.2-.8,2.2-2.4v-1.8c0-.7-.1-1.3-.5-1.8-.4-.5-1-.6-1.7-.6h-21.3c-.6,0-1-.4-1-1v-3.6c0-.6.4-1,1-1h22.4Z"/>
</svg>